<?xml version="1.0" encoding="utf-8"?>
<!-- Generator: Adobe Illustrator 24.1.2, SVG Export Plug-In . SVG Version: 6.00 Build 0)  -->
<svg version="1.1" id="Layer_1" xmlns="http://www.w3.org/2000/svg" xmlns:xlink="http://www.w3.org/1999/xlink" x="0px" y="0px"
	 viewBox="0 0 433.1 367.1" style="enable-background:new 0 0 433.1 367.1;" xml:space="preserve">
<style type="text/css">
	.st0{fill:#C0C0C0;}
</style>
<g>
	<g>
		<path class="st0" d="M62.9,365.1c-1.2-1.1-2-2.5-2.2-4.1L0.1,26.5c-0.7-4,1.9-7.8,5.9-8.6C81,4.3,157.7-1.6,233.9,0.4
			c64.8,1.7,129.9,9.2,193.3,22.2c1.9,0.4,3.6,1.6,4.7,3.2c1.1,1.7,1.5,3.7,1,5.6l-71.4,330c-0.4,1.9-1.6,3.6-3.3,4.7
			c-1.7,1.1-3.7,1.4-5.6,0.9c-45.2-10.8-91.6-16.5-138-16.8c-48.8-0.3-97.6,5.3-145,16.7c-2,0.5-4.1,0.1-5.7-1
			C63.6,365.6,63.3,365.4,62.9,365.1z M15.9,31.2l57.9,319.6c46.2-10.5,93.5-15.6,141-15.3c45,0.3,90,5.5,134,15.5l68.2-315.4
			c-60.3-11.9-122-18.8-183.4-20.4C160.8,13.2,87.6,18.6,15.9,31.2z"/>
	</g>
	<g>
		<g>
			
				<rect x="182.5" y="117.6" transform="matrix(3.907647e-03 -1 1 3.907647e-03 89.8493 346.0585)" class="st0" width="72.3" height="20.6"/>
		</g>
		<g>
			
				<rect x="260.3" y="193.1" transform="matrix(0.642 -0.7667 0.7667 0.642 -78.907 289.5201)" class="st0" width="20.6" height="72.4"/>
		</g>
		<g>
			
				<rect x="127.9" y="215.1" transform="matrix(0.8383 -0.5452 0.5452 0.8383 -96.3716 125.9314)" class="st0" width="72.4" height="20.6"/>
		</g>
	</g>
</g>
</svg>
