<?xml version="1.0" encoding="utf-8"?>
<!-- Generator: Adobe Illustrator 24.1.2, SVG Export Plug-In . SVG Version: 6.00 Build 0)  -->
<svg version="1.1" id="Layer_1" xmlns="http://www.w3.org/2000/svg" xmlns:xlink="http://www.w3.org/1999/xlink" x="0px" y="0px"
	 viewBox="0 0 499.3 423.3" style="enable-background:new 0 0 499.3 423.3;" xml:space="preserve">
<style type="text/css">
	.st0{fill:#C0C0C0;}
</style>
<g>
	<g>
		<path class="st0" d="M417,416.8c-0.5,2.1-1.9,3.9-3.7,5.1c-1.9,1.2-4.3,1.6-6.5,1.1c-52-12.5-105.6-19-159.1-19.3
			c-56.3-0.3-112.5,6.2-167.1,19.4c-2.3,0.5-4.7,0.1-6.6-1.1c-2-1.3-3.3-3.3-3.7-5.6L0.1,30.7c-0.9-4.5,2.2-9,6.8-9.9
			C93.5,5,181.8-1.8,269.7,0.4C344.4,2.4,419.4,11,492.6,25.9c2.2,0.5,4.2,1.8,5.4,3.7c1.2,1.9,1.7,4.2,1.2,6.4L417,416.5
			C417,416.6,417,416.7,417,416.8z M85.3,404.5c53.2-12.1,107.8-18.1,162.5-17.8c52,0.3,103.9,6.3,154.5,17.8l78.5-363.6
			c-69.5-13.8-140.6-21.7-211.5-23.5C185.4,15.3,101,21.5,18.4,36L85.3,404.5z"/>
	</g>
	<g>
		<polygon class="st0" points="257.7,249.5 233.9,248.1 238.7,164.8 262.5,166.2 		"/>
	</g>
</g>
</svg>
