<?xml version="1.0" encoding="utf-8"?>
<!-- Generator: Adobe Illustrator 24.1.2, SVG Export Plug-In . SVG Version: 6.00 Build 0)  -->
<svg version="1.1" id="Layer_1" xmlns="http://www.w3.org/2000/svg" xmlns:xlink="http://www.w3.org/1999/xlink" x="0px" y="0px"
	 viewBox="0 0 483.7 410" style="enable-background:new 0 0 483.7 410;" xml:space="preserve">
<g>
	<g>
		<path d="
			M68.3,404
			c-0.1-0.2-0.1-0.5-0.2-0.7
			L0.1,29.8
			c-0.8-4.5,2.1-8.8,6.6-9.6
			C90.6,4.9,176.3-1.8,261.2,0.4
			c72.3,1.9,145,10.2,215.9,24.6
			c2.2,0.4,4,1.7,5.3,3.6
			c1.2,1.8,1.6,4.1,1.1,6.2
			l-79.4,368.6
			c-0.5,2.2-1.8,4.1-3.7,5.2
			c-1.9,1.2-4.1,1.6-6.3,1.1
			C343.7,397.6,291.9,391.3,240,391
			c-54.5-0.3-108.9,6-161.9,18.8
			c-2.2,0.5-4.5,0.1-6.4-1.1
			C70,407.6,68.8,405.9,68.3,404z 
			M17.8,35l65,356.9
			c51.6-11.7,104.5-17.5,157.4-17.3
			c50.3,0.3,100.6,6,149.7,17.1
			l75.9-352.2
			c-67.4-13.3-136.3-20.9-204.9-22.7
			C179.7,14.8,98,20.9,17.8,35
			z
		"/>
	</g>
	<g>
		
			<rect x="120" y="200"  width="90" height="25"/>
			<rect x="270" y="200"  width="90" height="25"/>
	</g>

</g>
</svg>
