<?xml version="1.0" encoding="utf-8"?>
<!-- Generator: Adobe Illustrator 24.1.2, SVG Export Plug-In . SVG Version: 6.00 Build 0)  -->
<svg version="1.1" id="Layer_1" xmlns="http://www.w3.org/2000/svg" xmlns:xlink="http://www.w3.org/1999/xlink" x="0px" y="0px"
	 viewBox="0 0 448.9 380.7" style="enable-background:new 0 0 448.9 380.7;" xml:space="preserve">
<style type="text/css">
	.st0{fill:#C0C0C0;}
</style>
<g>
	<g>
		<path class="st0" d="M4.2,19.2c0.6-0.3,1.3-0.6,2.1-0.7C84,4.4,163.5-1.7,242.5,0.4c67.3,1.8,134.7,9.6,200.4,23.1
			c2,0.4,3.8,1.6,4.9,3.3c1.1,1.7,1.5,3.8,1.1,5.8l-74.1,342c-0.4,2-1.7,3.8-3.4,4.8c-2,1.2-3.9,1.4-5.9,1
			c-46.8-11.3-95-17.1-143-17.5c-50.5-0.3-101.1,5.5-150.3,17.3c-2.1,0.5-4.2,0.1-6-1c-1.8-1.1-3-3-3.4-5L0.1,27.4
			C-0.5,24,1.3,20.7,4.2,19.2z M432.2,37c-62.4-12.4-126.3-19.6-190.2-21.3c-75.4-2-151.2,3.5-225.6,16.5l59.9,331.3
			c47.9-10.8,97-16.2,146.1-15.9c46.6,0.3,93.3,5.7,138.9,16.1L432.2,37z"/>
	</g>
	<g>
		<path class="st0" d="M316.5,193c1.1-0.5,2.2-0.9,3.5-1c5.9-0.7,11.2,3.5,11.9,9.3c1,8.4,2.7,37.9-19.2,62.8
			c-25.1,28.7-60.2,27.6-67,27c-5.9-0.5-10.3-5.6-9.8-11.5c0.5-5.9,5.6-10.3,11.5-9.8c3.1,0.3,30.3,1.6,49.2-19.8
			c16.5-18.8,14.6-41.7,14-46.1C310.1,199.2,312.5,195,316.5,193z"/>
	</g>
	<g>
		<path class="st0" d="M156.8,86.9c19.6-9.8,38.5-9.1,43.3-8.7c5.9,0.5,10.3,5.6,9.8,11.5c-0.5,5.9-5.6,10.3-11.5,9.8
			c-3.1-0.2-30.4-1.7-49.2,19.8c-15.9,18.2-14.8,40-14.1,46.2c0.7,5.9-3.5,11.2-9.4,11.9c-5.9,0.7-11.2-3.5-11.9-9.4
			c-1-8.4-2.5-38,19.2-62.8C140.5,96.8,148.7,91,156.8,86.9z"/>
	</g>
	<g>
		<path class="st0" d="M122.3,198.7c1.7-0.8,3.6-1.2,5.6-1.1c5.9,0.5,10.3,5.6,9.8,11.5c-0.2,3.1-1.6,30.4,19.8,49.2
			c18.3,16,40,14.8,46.2,14.1c5.9-0.7,11.2,3.5,11.9,9.3c0.7,5.9-3.4,11.1-9.3,11.9c-8.4,1-37.9,2.6-62.8-19.2
			c-28.7-25.1-27.5-60.2-27-67C116.7,203.6,119,200.3,122.3,198.7z"/>
	</g>
	<g>
		<path class="st0" d="M236,76.7c1.1-0.5,2.2-0.9,3.5-1c8.4-1,37.8-2.7,62.9,19.2c28.8,25.3,27.6,60.2,27.1,67
			c-0.5,5.9-5.6,10.3-11.5,9.8c-5.9-0.5-10.3-5.6-9.8-11.5c0.2-3,1.7-30.3-19.8-49.2c-18.8-16.5-41.8-14.6-46.2-14
			c-5.8,0.7-11.2-3.4-11.9-9.3C229.6,83,232,78.7,236,76.7z"/>
	</g>
</g>
</svg>
