<?xml version="1.0" encoding="utf-8"?>
<!-- Generator: Adobe Illustrator 24.1.2, SVG Export Plug-In . SVG Version: 6.00 Build 0)  -->
<svg version="1.1" id="Layer_1" xmlns="http://www.w3.org/2000/svg" xmlns:xlink="http://www.w3.org/1999/xlink" x="0px" y="0px"
	 viewBox="0 0 433.9 368.1" style="enable-background:new 0 0 433.9 368.1;" xml:space="preserve">
<style type="text/css">
	.st0{fill:#C0C0C0;}
</style>
<g>
	<g>
		<path class="st0" d="M63.6,365.2c-0.7-0.9-1.2-2-1.4-3.2L0.2,27.4c-0.7-4,1.9-7.9,5.9-8.6C81.2,4.8,158-1.4,234.2,0.3
			C299,1.7,364.2,9,427.9,21.7c2,0.4,3.7,1.7,4.7,3.2c1.1,1.6,1.5,3.7,1,5.6l-70.2,330.7c-0.4,2-1.6,3.6-3.3,4.7
			c-1.7,1.1-3.7,1.4-5.7,0.9c-45.3-10.7-91.8-16.1-138.2-16.3c-48.9-0.1-97.7,5.7-145.1,17.3c-2,0.5-4,0.1-5.7-1
			C64.8,366.5,64.2,365.9,63.6,365.2z M16.1,31.9l59.3,319.8c46.2-10.7,93.6-16,141-15.9c45,0.1,90.2,5.1,134.2,15l67.1-316
			C357.2,23.1,295.4,16.4,233.9,15C161.1,13.4,87.9,19.1,16.1,31.9z"/>
	</g>
	<g>
		<polygon class="st0" points="237.3,251.5 207,274.8 183.6,244.5 171.9,253.6 195.3,283.9 204.3,295.5 216,286.5 246.3,263.1 		"/>
	</g>
	<g>
		<polygon class="st0" points="157,213.9 123.6,195.1 142.4,161.7 129.6,154.5 110.8,187.8 103.5,200.7 116.4,207.9 149.7,226.7 		
			"/>
	</g>
	<g>
		<polygon class="st0" points="169.1,118.8 174.5,81 212.4,86.4 214.5,71.8 176.6,66.4 162,64.3 159.9,78.9 154.5,116.7 		"/>
	</g>
	<g>
		<polygon class="st0" points="258,94.3 296,99.2 291,137.2 305.7,139.1 310.6,101.1 312.5,86.5 297.9,84.6 259.9,79.6 		"/>
	</g>
	<g>
		<polygon class="st0" points="300.9,184.8 307.6,222.5 269.9,229.2 272.5,243.7 310.2,237 324.7,234.4 322.1,219.9 315.4,182.2 		
			"/>
	</g>
</g>
</svg>
