<?xml version="1.0" encoding="UTF-8" standalone="no"?>
<svg
   xmlns:dc="http://purl.org/dc/elements/1.1/"
   xmlns:cc="http://creativecommons.org/ns#"
   xmlns:rdf="http://www.w3.org/1999/02/22-rdf-syntax-ns#"
   xmlns:svg="http://www.w3.org/2000/svg"
   xmlns="http://www.w3.org/2000/svg"
   xmlns:sodipodi="http://sodipodi.sourceforge.net/DTD/sodipodi-0.dtd"
   xmlns:inkscape="http://www.inkscape.org/namespaces/inkscape"
   inkscape:version="1.0 (4035a4fb49, 2020-05-01)"
   sodipodi:docname="tyrannis.svg"
   xml:space="preserve"
   enable-background="new 0 0 500 500"
   viewBox="0 0 500 500"
   y="0px"
   x="0px"
   id="Layer_1"
   version="1.1"><metadata
   id="metadata1284"><rdf:RDF><cc:Work
       rdf:about=""><dc:format>image/svg+xml</dc:format><dc:type
         rdf:resource="http://purl.org/dc/dcmitype/StillImage" /></cc:Work></rdf:RDF></metadata><defs
   id="defs1282">
        
        
        
    </defs><sodipodi:namedview
   inkscape:snap-grids="true"
   inkscape:current-layer="g1907"
   inkscape:window-maximized="1"
   inkscape:window-y="-8"
   inkscape:window-x="2552"
   inkscape:cy="229.34892"
   inkscape:cx="384.25243"
   inkscape:zoom="8"
   showgrid="false"
   id="namedview1280"
   inkscape:window-height="1377"
   inkscape:window-width="2560"
   inkscape:pageshadow="2"
   inkscape:pageopacity="0"
   guidetolerance="10"
   gridtolerance="10"
   objecttolerance="10"
   borderopacity="1"
   bordercolor="#666666"
   pagecolor="#ffffff"><inkscape:grid
     id="grid2103"
     type="xygrid" /></sodipodi:namedview>
    <g
   id="g2101"><path
     id="path1265"
     d="m 362.917,191.729 4.112,-7.122 h -8.224 -8.182 C 332.858,159.167 303.382,142.51 270,142.51 c -33.383,0 -62.858,16.657 -80.623,42.097 h -8.13 -8.224 l 4.112,7.122 4.031,6.982 c -6.057,12.76 -9.456,27.026 -9.456,42.09 0,15.393 3.562,29.944 9.871,42.911 h 5.285 5.858 l -2.929,5.074 -2.743,4.75 c 16.119,25.284 43.487,42.701 75.056,45.212 l 3.78,6.547 4.112,7.122 4.112,-7.122 3.78,-6.547 c 31.619,-2.515 59.027,-19.982 75.136,-45.332 l -2.673,-4.63 -2.929,-5.074 h 5.858 5.135 c 6.309,-12.967 9.871,-27.518 9.871,-42.911 0,-15.044 -3.391,-29.292 -9.433,-42.039 z m 1.857,49.073 c 0,13.741 -2.886,26.983 -8.581,39.396 h -14.856 l 7.565,13.109 c -16.037,24.021 -42.532,39.648 -71.29,41.936 l -1.843,0.147 -5.771,9.996 -5.768,-9.996 -1.843,-0.147 c -28.699,-2.282 -55.162,-17.865 -71.21,-41.822 l 7.634,-13.223 h -15.004 c -5.695,-12.413 -8.581,-25.655 -8.581,-39.396 0,-14.185 3.067,-27.839 9.117,-40.581 l 0.79,-1.669 -6.02,-10.429 h 12.097 l 1.048,-1.504 c 17.751,-25.417 46.812,-40.593 77.741,-40.593 30.929,0 59.992,15.176 77.743,40.593 l 1.048,1.504 h 12.148 l -6.047,10.479 0.79,1.666 c 6.033,12.734 9.093,26.372 9.093,40.534 z"
     fill="#a5a5a5" /><path
     id="path1267"
     d="m 414.267,162.301 -1,-1.833 h -8.89 l 4.347,-7.533 -1.181,-1.808 C 377.051,104.452 325.634,76.586 270,76.586 c -55.268,0 -106.497,27.575 -137.044,73.765 l -1.199,1.813 4.793,8.304 h -9.815 l -1,1.833 c -13.049,23.931 -19.948,51.076 -19.948,78.501 0,87.661 68.53,159.702 156.015,164.008 l 2.145,0.105 6.054,-10.488 6.057,10.488 2.143,-0.105 c 87.487,-4.306 156.017,-76.347 156.017,-164.008 -0.003,-27.425 -6.902,-54.57 -19.951,-78.501 z m -136.24,238.997 -3.915,-6.781 -4.112,-7.122 -4.112,7.122 -3.915,6.781 C 176.951,397.115 109.3,326.861 109.3,240.801 c 0,-27.825 7.077,-53.996 19.522,-76.818 h 5.594 8.224 l -4.112,-7.122 -2.639,-4.571 C 164.646,108.802 213.961,80.101 270,80.101 c 56.362,0 105.913,29.039 134.599,72.947 l -2.201,3.813 -4.112,7.122 h 8.224 4.669 c 12.445,22.823 19.522,48.993 19.522,76.818 -0.001,86.06 -67.652,156.314 -152.674,160.497 z"
     fill="#a5a5a5" /><path
     id="path1269"
     d="m 411.178,163.982 h -4.669 -8.224 l 4.112,-7.122 2.201,-3.813 C 375.913,109.139 326.362,80.101 270,80.101 c -56.039,0 -105.354,28.702 -134.112,72.188 l 2.639,4.571 4.112,7.122 h -8.224 -5.594 c -12.444,22.823 -19.521,48.993 -19.521,76.819 0,86.06 67.651,156.314 152.673,160.497 l 3.915,-6.781 4.112,-7.122 4.112,7.122 3.915,6.781 C 363.05,397.115 430.7,326.861 430.7,240.801 c 0,-27.826 -7.077,-53.996 -19.522,-76.819 z m -52.759,119.73 h -5.135 -5.858 l 2.929,5.074 2.673,4.63 c -16.109,25.351 -43.516,42.817 -75.136,45.332 l -3.78,6.547 -4.112,7.122 -4.112,-7.122 -3.78,-6.547 c -31.569,-2.511 -58.937,-19.927 -75.056,-45.212 l 2.743,-4.75 2.929,-5.074 h -5.858 -5.285 c -6.309,-12.967 -9.871,-27.518 -9.871,-42.911 0,-15.064 3.399,-29.33 9.456,-42.09 l -4.031,-6.982 -4.112,-7.122 h 8.224 8.13 c 17.765,-25.44 47.241,-42.097 80.623,-42.097 33.383,0 62.858,16.657 80.623,42.097 h 8.182 8.224 l -4.112,7.122 -4.06,7.032 c 6.042,12.747 9.433,26.995 9.433,42.039 0,15.394 -3.562,29.945 -9.871,42.912 z"
     fill="#0d1517" /></g>


	
<g
   transform="translate(0.97227182,0.17677669)"
   style="stroke-width:3.91887"
   id="g1901"><g
     id="g1907"><g
       style="stroke-width:2.35801"
       transform="matrix(0.15384667,0.39530658,-0.39511734,0.15377303,444.46799,141.52588)"
       id="g2109"><g
         id="g1277"
         transform="translate(-168.81042,-36.38373)"
         style="fill:none;stroke-width:2.358">
        <g
   id="g1275"
   style="fill:none;stroke-width:2.358">
            <path
   fill="transparent"
   stroke="#808080"
   stroke-width="11.7566"
   d="m 190,140 q 45,-5 80,0 l -5,70 q -30,-3 -70,0 z"
   id="path1273"
   style="fill:none;stroke-width:2.358" />
        </g>
    </g><rect
         style="fill:#999999;stroke:none;stroke-width:2.358"
         id="rect1297"
         width="20"
         height="5"
         x="125.19523"
         y="-64.67881"
         ry="0"
         transform="matrix(0.00221434,0.99999755,-0.99999467,0.00326547,0,0)"
         rx="0" /></g><g
       style="stroke-width:2.35801"
       transform="matrix(0.09829593,0.4126427,-0.41244516,0.0982489,459.68342,178.38133)"
       id="g2109-0-9"
       inkscape:transform-center-x="-18.135631"
       inkscape:transform-center-y="9.766891"><g
         id="g1277-7-0"
         transform="translate(-168.81042,-36.38373)"
         style="fill:none;stroke-width:2.358"><g
           id="g1275-7-0"
           style="fill:none;stroke-width:2.358"><path
             fill="transparent"
             stroke="#808080"
             stroke-width="11.7566"
             d="m 190,140 q 45,-5 80,0 l -5,70 q -30,-3 -70,0 z"
             id="path1273-0-8"
             style="fill:none;stroke-width:2.358" /></g></g><rect
         style="fill:#999999;stroke:none;stroke-width:2.358"
         id="rect1297-7-2"
         width="20"
         height="5"
         x="125.19523"
         y="-64.67881"
         ry="0"
         transform="matrix(0.00221434,0.99999755,-0.99999467,0.00326547,0,0)"
         rx="0" /></g><g
       inkscape:transform-center-y="19.59213"
       inkscape:transform-center-x="-9.8849899"
       id="g2109-0-9-1"
       transform="matrix(-0.13307761,0.40277344,-0.40258063,-0.13301389,465.89343,277.85174)"
       style="stroke-width:2.35801"><g
         style="fill:none;stroke-width:2.358"
         transform="translate(-168.81042,-36.38373)"
         id="g1277-7-0-7"><g
           style="fill:none;stroke-width:2.358"
           id="g1275-7-0-1"><path
             style="fill:none;stroke-width:2.358"
             id="path1273-0-8-3"
             d="m 190,140 q 45,-5 80,0 l -5,70 q -30,-3 -70,0 z"
             stroke-width="11.7566"
             stroke="#808080"
             fill="transparent" /></g></g><rect
         rx="0"
         transform="matrix(0.00221434,0.99999755,-0.99999467,0.00326547,0,0)"
         ry="0"
         y="-64.67881"
         x="125.19523"
         height="5"
         width="20"
         id="rect1297-7-2-0"
         style="fill:#999999;stroke:none;stroke-width:2.358" /></g><g
       style="stroke-width:2.35801"
       transform="matrix(-0.22281123,0.36095879,-0.360786,-0.22270456,451.67186,322.71275)"
       id="g2109-0-9-1-9"
       inkscape:transform-center-x="-5.5413671"
       inkscape:transform-center-y="21.195556"><g
         id="g1277-7-0-7-6"
         transform="translate(-168.81042,-36.38373)"
         style="fill:none;stroke-width:2.358"><g
           id="g1275-7-0-1-7"
           style="fill:none;stroke-width:2.358"><path
             fill="transparent"
             stroke="#808080"
             stroke-width="11.7566"
             d="m 190,140 q 45,-5 80,0 l -5,70 q -30,-3 -70,0 z"
             id="path1273-0-8-3-3"
             style="fill:none;stroke-width:2.358" /></g></g><rect
         style="fill:#999999;stroke:none;stroke-width:2.358"
         id="rect1297-7-2-0-6"
         width="20"
         height="5"
         x="125.19523"
         y="-64.67881"
         ry="0"
         transform="matrix(0.00221434,0.99999755,-0.99999467,0.00326547,0,0)"
         rx="0" /></g><g
       inkscape:transform-center-y="21.649288"
       inkscape:transform-center-x="-1.0865031"
       id="g2109-0-9-1-9-4"
       transform="matrix(-0.29756204,0.30231263,-0.30216792,-0.29741959,427.85571,362.48753)"
       style="stroke-width:2.35801"><g
         style="fill:none;stroke-width:2.358"
         transform="translate(-168.81042,-36.38373)"
         id="g1277-7-0-7-6-0"><g
           style="fill:none;stroke-width:2.358"
           id="g1275-7-0-1-7-2"><path
             style="fill:none;stroke-width:2.358"
             id="path1273-0-8-3-3-7"
             d="m 190,140 q 45,-5 80,0 l -5,70 q -30,-3 -70,0 z"
             stroke-width="11.7566"
             stroke="#808080"
             fill="transparent" /></g></g><rect
         rx="0"
         transform="matrix(0.00221434,0.99999755,-0.99999467,0.00326547,0,0)"
         ry="0"
         y="-64.67881"
         x="125.19523"
         height="5"
         width="20"
         id="rect1297-7-2-0-6-9"
         style="fill:#999999;stroke:none;stroke-width:2.358" /></g><g
       style="stroke-width:2.35801"
       transform="matrix(-0.35619925,0.23034364,-0.23023338,-0.35602873,396.07304,395.70975)"
       id="g2109-0-9-1-9-4-7"
       inkscape:transform-center-x="3.3201325"
       inkscape:transform-center-y="21.043553"><g
         id="g1277-7-0-7-6-0-4"
         transform="translate(-168.81042,-36.38373)"
         style="fill:none;stroke-width:2.358"><g
           id="g1275-7-0-1-7-2-3"
           style="fill:none;stroke-width:2.358"><path
             fill="transparent"
             stroke="#808080"
             stroke-width="11.7566"
             d="m 190,140 q 45,-5 80,0 l -5,70 q -30,-3 -70,0 z"
             id="path1273-0-8-3-3-7-5"
             style="fill:none;stroke-width:2.358" /></g></g><rect
         style="fill:#999999;stroke:none;stroke-width:2.358"
         id="rect1297-7-2-0-6-9-9"
         width="20"
         height="5"
         x="125.19523"
         y="-64.67881"
         ry="0"
         transform="matrix(0.00221434,0.99999755,-0.99999467,0.00326547,0,0)"
         rx="0" /></g><g
       inkscape:transform-center-y="19.302342"
       inkscape:transform-center-x="7.8134349"
       id="g2109-0-9-1-9-4-7-6"
       transform="matrix(-0.39968376,0.14208797,-0.14201996,-0.39949242,356.96265,421.69119)"
       style="stroke-width:2.35801"><g
         style="fill:none;stroke-width:2.358"
         transform="translate(-168.81042,-36.38373)"
         id="g1277-7-0-7-6-0-4-8"><g
           style="fill:none;stroke-width:2.358"
           id="g1275-7-0-1-7-2-3-7"><path
             style="fill:none;stroke-width:2.358"
             id="path1273-0-8-3-3-7-5-8"
             d="m 190,140 q 45,-5 80,0 l -5,70 q -30,-3 -70,0 z"
             stroke-width="11.7566"
             stroke="#808080"
             fill="transparent" /></g></g><rect
         rx="0"
         transform="matrix(0.00221434,0.99999755,-0.99999467,0.00326547,0,0)"
         ry="0"
         y="-64.67881"
         x="125.19523"
         height="5"
         width="20"
         id="rect1297-7-2-0-6-9-9-1"
         style="fill:#999999;stroke:none;stroke-width:2.358" /></g></g></g></svg>
